<?xml version="1.0" encoding="UTF-8"?>
<svg version="1.1" xmlns="http://www.w3.org/2000/svg" width="225" height="225">
<path d="M0 0 C74.25 0 148.5 0 225 0 C225 74.25 225 148.5 225 225 C150.75 225 76.5 225 0 225 C0 150.75 0 76.5 0 0 Z " fill="#306291" transform="translate(0,0)"/>
<path d="M0 0 C11.715 -0.12375 23.43 -0.2475 35.5 -0.375 C40.96723633 -0.45693604 40.96723633 -0.45693604 46.54492188 -0.54052734 C74.68295735 -0.78571719 100.76922054 1.82083911 122.12109375 21.8984375 C124 24 124 24 124 26 C124.66 26 125.32 26 126 26 C136.0192416 39.31475374 140.17691296 53.78613352 140.1875 70.3125 C140.19974609 71.30701172 140.21199219 72.30152344 140.22460938 73.32617188 C140.2623909 92.50659136 132.48692583 109.74324291 119.4375 123.65234375 C106.81058491 135.8138437 89.19672509 144.18188917 71.5078125 144.09765625 C70.4264502 144.09515869 69.34508789 144.09266113 68.23095703 144.09008789 C66.1985083 144.07643188 66.1985083 144.07643188 64.125 144.0625 C59.79375 144.041875 55.4625 144.02125 51 144 C51 130.14 51 116.28 51 102 C59.415 101.505 59.415 101.505 68 101 C77.11737154 98.3950367 85.95740936 95.59282579 91 87 C93.65291849 81.05644223 94.58202103 76.04998872 94.5625 69.5625 C94.56008301 68.7257373 94.55766602 67.88897461 94.55517578 67.02685547 C94.35527336 60.33861708 92.98546494 55.69823651 88 51 C76.11983611 39.92300212 59.45547118 41.70252142 44 41 C44 74.99 44 108.98 44 144 C29.48 144 14.96 144 0 144 C0 96.48 0 48.96 0 0 Z " fill="#FDFEFE" transform="translate(46,41)"/>
<path d="M0 0 C1.98 0.99 1.98 0.99 4 2 C4 1.34 4 0.68 4 0 C26.44 0 48.88 0 72 0 C72 0.33 72 0.66 72 1 C50.22 1 28.44 1 6 1 C6 48.52 6 96.04 6 145 C5.01 144.67 4.02 144.34 3 144 C3 136.41 3 128.82 3 121 C2.34 121 1.68 121 1 121 C1.00580078 119.72463379 1.01160156 118.44926758 1.01757812 117.13525391 C1.07996968 95.89980845 0.79015693 74.66789069 0.53643799 53.43438721 C0.43996735 45.33457043 0.34617855 37.23472205 0.25218201 29.13487625 C0.21941482 26.33033935 0.18600182 23.52581076 0.15246582 20.72128296 C0.13223278 19.00347912 0.11200928 17.28567517 0.09179688 15.56787109 C0.08244614 14.80009842 0.0730954 14.03232574 0.0634613 13.24128723 C0.01204441 8.82715804 -0.00854339 4.41443233 0 0 Z " fill="#316291" transform="translate(40,40)"/>
<path d="M0 0 C0.33 0 0.66 0 1 0 C1.33 10.56 1.66 21.12 2 32 C2.66 32 3.32 32 4 32 C4.495 35.96 4.495 35.96 5 40 C5.33 40 5.66 40 6 40 C6.495 60.295 6.495 60.295 7 81 C7.99 81.33 8.98 81.66 10 82 C10 82.66 10 83.32 10 84 C9.34 84 8.68 84 8 84 C7.34 85.32 6.68 86.64 6 88 C3.03 87.01 3.03 87.01 0 86 C0 86.66 0 87.32 0 88 C-15.18 88 -30.36 88 -46 88 C-46.66 86.35 -47.32 84.7 -48 83 C-48.33 82.67 -48.66 82.34 -49 82 C-49.33 82 -49.66 82 -50 82 C-49.67 73.75 -49.34 65.5 -49 57 C-48.01 57 -47.02 57 -46 57 C-46.33 64.59 -46.66 72.18 -47 80 C-23.735 80.495 -23.735 80.495 0 81 C0 54.27 0 27.54 0 0 Z " fill="#205280" transform="translate(90,104)"/>
<path d="M0 0 C12.024375 -0.04125 24.04875 -0.0825 36.4375 -0.125 C40.21888428 -0.14320801 44.00026855 -0.16141602 47.89624023 -0.18017578 C52.55285645 -0.18920898 52.55285645 -0.18920898 54.7403717 -0.19088745 C56.25165488 -0.19393662 57.76293353 -0.20092459 59.27418518 -0.21115112 C67.41447471 -0.2634299 75.10363706 -0.27182568 83 2 C79.48975328 3.94516856 77.90331877 4.10093606 74 3 C73.01 2.67 72.02 2.34 71 2 C69.60560336 1.93334624 68.20830125 1.91461801 66.8125 1.9375 C65.554375 1.958125 64.29625 1.97875 63 2 C63.99 2.99 64.98 3.98 66 5 C44.88 5 23.76 5 2 5 C1.67 50.54 1.34 96.08 1 143 C14.86 143 28.72 143 43 143 C43 109.34 43 75.68 43 41 C43.33 41 43.66 41 44 41 C44 74.99 44 108.98 44 144 C29.48 144 14.96 144 0 144 C0 96.48 0 48.96 0 0 Z " fill="#D8E1EA" transform="translate(46,41)"/>
<path d="M0 0 C0.33 0 0.66 0 1 0 C1 26.4 1 52.8 1 80 C1.99 80.495 1.99 80.495 3 81 C-0.15725619 83.10483746 -0.87374611 83.2472059 -4.47143555 83.22705078 C-5.37214279 83.22689972 -6.27285004 83.22674866 -7.20085144 83.22659302 C-8.16968765 83.21627045 -9.13852386 83.20594788 -10.13671875 83.1953125 C-11.62858452 83.19106766 -11.62858452 83.19106766 -13.15058899 83.18673706 C-16.3296813 83.17553489 -19.50849272 83.15043014 -22.6875 83.125 C-24.84179281 83.11497025 -26.99609003 83.10584439 -29.15039062 83.09765625 C-34.43368972 83.07559546 -39.71682479 83.04211756 -45 83 C-45 83.99 -45 84.98 -45 86 C-45.66 86 -46.32 86 -47 86 C-47.33 85.01 -47.66 84.02 -48 83 C-48.33 82.67 -48.66 82.34 -49 82 C-49.33 82 -49.66 82 -50 82 C-49.67 73.75 -49.34 65.5 -49 57 C-48.01 57 -47.02 57 -46 57 C-46.33 64.59 -46.66 72.18 -47 80 C-23.735 80.495 -23.735 80.495 0 81 C0 54.27 0 27.54 0 0 Z " fill="#164E7A" transform="translate(90,104)"/>
<path d="M0 0 C3.45825936 -0.05898369 6.9163862 -0.09392131 10.375 -0.125 C11.34050781 -0.14175781 12.30601563 -0.15851563 13.30078125 -0.17578125 C19.77738043 -0.21924836 25.706577 0.46767329 32 2 C32 2.33 32 2.66 32 3 C27.05 3 22.1 3 17 3 C16.67 3.66 16.34 4.32 16 5 C12.37 5 8.74 5 5 5 C5 7.97 5 10.94 5 14 C4.67 14 4.34 14 4 14 C3.67 24.56 3.34 35.12 3 46 C2.34 46 1.68 46 1 46 C0.24019895 30.65444374 -0.13609886 15.36404914 0 0 Z " fill="#2E6494" transform="translate(90,82)"/>
<path d="M0 0 C1.98 0.99 1.98 0.99 4 2 C4 1.34 4 0.68 4 0 C26.44 0 48.88 0 72 0 C72 0.33 72 0.66 72 1 C50.22 1 28.44 1 6 1 C6 32.35 6 63.7 6 96 C5.67 96 5.34 96 5 96 C5 66.96 5 37.92 5 8 C3.35 7.67 1.7 7.34 0 7 C0 4.69 0 2.38 0 0 Z " fill="#5A7EA1" transform="translate(40,40)"/>
<path d="M0 0 C1.33333333 0.66666667 2.66666667 1.33333333 4 2 C4 2.99 4 3.98 4 5 C4.66 4.34 5.32 3.68 6 3 C6.33 4.32 6.66 5.64 7 7 C4.69 7.66 2.38 8.32 0 9 C-0.33 10.98 -0.66 12.96 -1 15 C-1.99 14.67 -2.98 14.34 -4 14 C-4.99 14 -5.98 14 -7 14 C-7 13.34 -7 12.68 -7 12 C-7.99 12 -8.98 12 -10 12 C-10 9 -10 9 -8.3203125 7.24609375 C-7.59585938 6.64925781 -6.87140625 6.05242187 -6.125 5.4375 C-5.04605469 4.53837891 -5.04605469 4.53837891 -3.9453125 3.62109375 C-3.30335938 3.08613281 -2.66140625 2.55117187 -2 2 C-1.34 1.34 -0.68 0.68 0 0 Z " fill="#285784" transform="translate(169,160)"/>
<path d="M0 0 C0 0.66 0 1.32 0 2 C0.66 2 1.32 2 2 2 C2 3.65 2 5.3 2 7 C-2.55737263 6.56179109 -5.57653445 6.14958831 -9 3 C-9.33 3.33 -9.66 3.66 -10 4 C-12.01594582 4.23427778 -14.038474 4.41336124 -16.0625 4.5625 C-17.16722656 4.64628906 -18.27195312 4.73007813 -19.41015625 4.81640625 C-20.69212891 4.90728516 -20.69212891 4.90728516 -22 5 C-22 4.01 -22 3.02 -22 2 C-22.99 1.67 -23.98 1.34 -25 1 C-21.95843125 0.83135856 -18.91676547 0.66502247 -15.875 0.5 C-15.0190625 0.45230469 -14.163125 0.40460938 -13.28125 0.35546875 C-8.84778214 0.11674356 -4.44201651 -0.05825595 0 0 Z " fill="#204F7A" transform="translate(126,185)"/>
<path d="M0 0 C9.36256479 -0.04648213 18.72508942 -0.08194953 28.08774471 -0.10362434 C32.43589817 -0.11403078 36.78397228 -0.12813218 41.13208008 -0.15087891 C45.33366735 -0.17271984 49.53517862 -0.18459221 53.73681831 -0.18975449 C55.33426674 -0.19343014 56.93171133 -0.20060744 58.52912712 -0.21146011 C66.58805999 -0.26399979 74.18059037 -0.2407629 82 2 C78.48975328 3.94516856 76.90331877 4.10093606 73 3 C72.01 2.67 71.02 2.34 70 2 C67.74660334 1.88187505 65.48995504 1.82303355 63.23364258 1.79467773 C62.55045456 1.78477814 61.86726654 1.77487854 61.16337585 1.76467896 C58.90712947 1.73311321 56.65086203 1.7083261 54.39453125 1.68359375 C52.82939611 1.66301996 51.26426648 1.64202338 49.69914246 1.62062073 C45.58102884 1.56544391 41.46286544 1.51601529 37.34466553 1.46777344 C33.14184136 1.41752635 28.93908942 1.36185703 24.73632812 1.30664062 C16.4909465 1.19911274 8.24550442 1.09765587 0 1 C0 0.67 0 0.34 0 0 Z " fill="#D7E8F9" transform="translate(47,41)"/>
<path d="M0 0 C0.33 0 0.66 0 1 0 C1.74873584 5.3063705 2.11072757 10.37374366 2.0625 15.74609375 C2.05871338 16.44267593 2.05492676 17.13925812 2.05102539 17.85694885 C2.03894555 20.05053327 2.02029027 22.24397718 2 24.4375 C1.97348237 27.35286043 1.95350215 30.26815893 1.9375 33.18359375 C1.92589844 34.46806396 1.91429688 35.75253418 1.90234375 37.07592773 C1.66307009 39.89077357 1.66307009 39.89077357 3 41 C3.45459858 43.65463121 3.70243238 46.32189138 4 49 C3.01 49 2.02 49 1 49 C0 48 0 48 -0.12025452 46.05747986 C-0.11803391 45.20698563 -0.11581329 44.35649139 -0.11352539 43.48022461 C-0.11344986 42.51930405 -0.11337433 41.55838348 -0.11329651 40.56834412 C-0.10813522 39.523564 -0.10297394 38.47878387 -0.09765625 37.40234375 C-0.0962413 36.33834854 -0.09482635 35.27435333 -0.09336853 34.17811584 C-0.08775064 30.76454917 -0.07519511 27.351047 -0.0625 23.9375 C-0.05748731 21.62955824 -0.052924 19.32161545 -0.04882812 17.01367188 C-0.0377754 11.34242574 -0.02101987 5.67121747 0 0 Z " fill="#23598A" transform="translate(91,136)"/>
<path d="M0 0 C3.45825936 -0.05898369 6.9163862 -0.09392131 10.375 -0.125 C11.34050781 -0.14175781 12.30601563 -0.15851563 13.30078125 -0.17578125 C19.77738043 -0.21924836 25.706577 0.46767329 32 2 C32 2.33 32 2.66 32 3 C27.05 3 22.1 3 17 3 C16.67 3.66 16.34 4.32 16 5 C12.7 5 9.4 5 6 5 C6 4.01 6 3.02 6 2 C3.03 1.505 3.03 1.505 0 1 C0 0.67 0 0.34 0 0 Z " fill="#4E79A1" transform="translate(90,82)"/>
<path d="M0 0 C3 0 3 0 5 1 C6.92259033 0.90194774 6.92259033 0.90194774 9 0.5625 C11.71711819 0.1679185 14.2553496 0 17 0 C16.42655063 2.86724686 16.1385485 3.8614515 14 6 C11.1796875 6.1953125 11.1796875 6.1953125 7.875 6.125 C6.77929688 6.10695312 5.68359375 6.08890625 4.5546875 6.0703125 C3.29011719 6.03550781 3.29011719 6.03550781 2 6 C2.99 5.34 3.98 4.68 5 4 C3.35 3.67 1.7 3.34 0 3 C0 2.01 0 1.02 0 0 Z " fill="#285A88" transform="translate(99,136)"/>
<path d="M0 0 C0.495 0.99 0.495 0.99 1 2 C0.67 2.66 0.34 3.32 0 4 C-0.56164856 3.83923477 -1.12329712 3.67846954 -1.70196533 3.51283264 C-4.11833597 2.97359198 -6.29454564 2.84123167 -8.76855469 2.79467773 C-9.70922791 2.77473251 -10.64990112 2.75478729 -11.61907959 2.73423767 C-12.62650208 2.71752518 -13.63392456 2.70081268 -14.671875 2.68359375 C-16.22820648 2.6524221 -16.22820648 2.6524221 -17.815979 2.62062073 C-21.12725258 2.55528592 -24.43860482 2.49631483 -27.75 2.4375 C-29.99610185 2.39429951 -32.24219578 2.35068473 -34.48828125 2.30664062 C-39.99210457 2.19962097 -45.49600598 2.09782478 -51 2 C-51 1.67 -51 1.34 -51 1 C-44.70119306 0.85663838 -38.40236287 0.7143335 -32.10351562 0.57275391 C-29.9619086 0.52449325 -27.82030695 0.47599309 -25.67871094 0.42724609 C-22.59571707 0.35711299 -19.5127047 0.28784881 -16.4296875 0.21875 C-15.47633514 0.19687622 -14.52298279 0.17500244 -13.54074097 0.15246582 C-9.02604103 0.05208866 -4.51619333 -0.02629516 0 0 Z " fill="#2B5677" transform="translate(96,186)"/>
<path d="M0 0 C0.66 0.33 1.32 0.66 2 1 C1.67 8.92 1.34 16.84 1 25 C0.01 25.33 -0.98 25.66 -2 26 C-1.86186975 21.85387186 -1.71321141 17.70818838 -1.5625 13.5625 C-1.52318359 12.37849609 -1.48386719 11.19449219 -1.44335938 9.97460938 C-1.40146484 8.84990234 -1.35957031 7.72519531 -1.31640625 6.56640625 C-1.27974854 5.52427979 -1.24309082 4.48215332 -1.20532227 3.40844727 C-1 1 -1 1 0 0 Z " fill="#275681" transform="translate(42,160)"/>
<path d="M0 0 C2.31 0 4.62 0 7 0 C7 0.66 7 1.32 7 2 C7.66 2 8.32 2 9 2 C8.67 3.65 8.34 5.3 8 7 C3.38 6.01 -1.24 5.02 -6 4 C-6 3.67 -6 3.34 -6 3 C-4.35 3 -2.7 3 -1 3 C-0.67 2.01 -0.34 1.02 0 0 Z " fill="#4375A4" transform="translate(135,40)"/>
<path d="M0 0 C4.455 0.99 4.455 0.99 9 2 C8.01 2.66 7.02 3.32 6 4 C6.99 4.66 7.98 5.32 9 6 C8.67 6.99 8.34 7.98 8 9 C7.33613281 8.72285156 6.67226562 8.44570312 5.98828125 8.16015625 C5.10527344 7.79792969 4.22226563 7.43570313 3.3125 7.0625 C2.44238281 6.70285156 1.57226562 6.34320313 0.67578125 5.97265625 C-1.88179265 5.0429688 -4.3221323 4.45837375 -7 4 C-7 3.67 -7 3.34 -7 3 C-4.36 2.67 -1.72 2.34 1 2 C0.67 1.34 0.34 0.68 0 0 Z " fill="#EAF0F3" transform="translate(124,80)"/>
<path d="M0 0 C7.59 0 15.18 0 23 0 C23 0.33 23 0.66 23 1 C15.08 1.495 15.08 1.495 7 2 C6.67 3.65 6.34 5.3 6 7 C4.68 7 3.36 7 2 7 C2.33 5.02 2.66 3.04 3 1 C2.01 0.67 1.02 0.34 0 0 Z " fill="#4D7294" transform="translate(97,185)"/>
<path d="M0 0 C0.515625 0.37125 1.03125 0.7425 1.5625 1.125 C-5.5325341 4.13501447 -11.73172131 5.42028727 -19.375 5.25 C-20.15423828 5.24097656 -20.93347656 5.23195312 -21.73632812 5.22265625 C-23.63685447 5.19933691 -25.53722008 5.16347586 -27.4375 5.125 C-27.4375 4.795 -27.4375 4.465 -27.4375 4.125 C-26.38949219 4.07601562 -25.34148437 4.02703125 -24.26171875 3.9765625 C-22.88278646 3.90151857 -21.5038815 3.82597143 -20.125 3.75 C-19.43470703 3.7190625 -18.74441406 3.688125 -18.03320312 3.65625 C-14.36759211 3.44375081 -12.55849208 3.20566139 -9.4375 1.125 C-3.19233871 -1.14596774 -3.19233871 -1.14596774 0 0 Z " fill="#5A7DA0" transform="translate(124.4375,137.875)"/>
<path d="M0 0 C0.33 0 0.66 0 1 0 C0.40380045 4.86896303 -0.56976822 9.32790951 -2 14 C-2.99 13.67 -3.98 13.34 -5 13 C-4.67 9.7 -4.34 6.4 -4 3 C-2.68 3 -1.36 3 0 3 C0 2.01 0 1.02 0 0 Z " fill="#F0F5F6" transform="translate(184,125)"/>
<path d="M0 0 C1.44096586 0.42594588 2.87768712 0.86626633 4.3125 1.3125 C5.11300781 1.55613281 5.91351563 1.79976562 6.73828125 2.05078125 C9.09964573 3.04182023 10.33879993 4.08074943 12 6 C5.23076923 7.38461538 5.23076923 7.38461538 2 6 C0 3 0 3 0 0 Z " fill="#EEF4F6" transform="translate(145,49)"/>
<path d="M0 0 C0.33 0 0.66 0 1 0 C1 2.64 1 5.28 1 8 C0.34 8 -0.32 8 -1 8 C-1.33 8.99 -1.66 9.98 -2 11 C-2.33 10.34 -2.66 9.68 -3 9 C-2.67 8.34 -2.34 7.68 -2 7 C-2.99 7.33 -3.98 7.66 -5 8 C-5 6.35 -5 4.7 -5 3 C-4.360625 2.87625 -3.72125 2.7525 -3.0625 2.625 C-2.0415625 2.315625 -2.0415625 2.315625 -1 2 C-0.67 1.34 -0.34 0.68 0 0 Z " fill="#2D5B88" transform="translate(175,155)"/>
<path d="M0 0 C1.98 0.99 1.98 0.99 4 2 C4 1.34 4 0.68 4 0 C4.66 0.33 5.32 0.66 6 1 C5.67 3.31 5.34 5.62 5 8 C3.35 7.67 1.7 7.34 0 7 C0 4.69 0 2.38 0 0 Z " fill="#3D71A2" transform="translate(40,40)"/>
<path d="M0 0 C1.65 0 3.3 0 5 0 C5.33 1.65 5.66 3.3 6 5 C5.34 5 4.68 5 4 5 C3.67 5.66 3.34 6.32 3 7 C1.35 5.68 -0.3 4.36 -2 3 C-1.34 2.34 -0.68 1.68 0 1 C0 0.67 0 0.34 0 0 Z " fill="#4474A3" transform="translate(154,48)"/>
<path d="M0 0 C1.73443359 0.11794922 1.73443359 0.11794922 3.50390625 0.23828125 C6.4375 0.6875 6.4375 0.6875 8.4375 2.6875 C6.7875 3.0175 5.1375 3.3475 3.4375 3.6875 C3.4375 3.0275 3.4375 2.3675 3.4375 1.6875 C2.66664062 1.78289062 1.89578125 1.87828125 1.1015625 1.9765625 C0.09867188 2.08742188 -0.90421875 2.19828125 -1.9375 2.3125 C-2.93523437 2.42851563 -3.93296875 2.54453125 -4.9609375 2.6640625 C-5.81945312 2.67179687 -6.67796875 2.67953125 -7.5625 2.6875 C-8.2225 2.0275 -8.8825 1.3675 -9.5625 0.6875 C-6.07154461 -0.4761518 -3.65960825 -0.2739595 0 0 Z " fill="#30689D" transform="translate(113.5625,84.3125)"/>
<path d="M0 0 C0.66 0 1.32 0 2 0 C2 0.66 2 1.32 2 2 C3.32 2 4.64 2 6 2 C6 2.99 6 3.98 6 5 C1.545 5.495 1.545 5.495 -3 6 C-3 5.34 -3 4.68 -3 4 C-2.34 4 -1.68 4 -1 4 C-0.67 2.68 -0.34 1.36 0 0 Z " fill="#22537F" transform="translate(146,178)"/>
<path d="M0 0 C0.66 0.33 1.32 0.66 2 1 C1.67 1.66 1.34 2.32 1 3 C2.32 3.33 3.64 3.66 5 4 C5.33 5.32 5.66 6.64 6 8 C5.01 7.67 4.02 7.34 3 7 C2.01 7 1.02 7 0 7 C0 6.34 0 5.68 0 5 C-0.99 5 -1.98 5 -3 5 C-3 4.01 -3 3.02 -3 2 C-2.01 1.34 -1.02 0.68 0 0 Z " fill="#21527D" transform="translate(162,167)"/>
<path d="M0 0 C0.33 0 0.66 0 1 0 C0.67 2.97 0.34 5.94 0 9 C-1.98 9.33 -3.96 9.66 -6 10 C-5.34 8.35 -4.68 6.7 -4 5 C-3.34 5 -2.68 5 -2 5 C-1.34 3.35 -0.68 1.7 0 0 Z " fill="#275A86" transform="translate(183,141)"/>
<path d="M0 0 C1.134375 0.020625 2.26875 0.04125 3.4375 0.0625 C3.4375 1.7125 3.4375 3.3625 3.4375 5.0625 C2.7775 5.0625 2.1175 5.0625 1.4375 5.0625 C1.4375 4.0725 1.4375 3.0825 1.4375 2.0625 C1.1075 3.0525 0.7775 4.0425 0.4375 5.0625 C-0.5525 5.3925 -1.5425 5.7225 -2.5625 6.0625 C-3.2225 4.4125 -3.8825 2.7625 -4.5625 1.0625 C-3.5625 0.0625 -3.5625 0.0625 0 0 Z " fill="#3D6E9C" transform="translate(180.5625,71.9375)"/>
<path d="M0 0 C0.33 0.66 0.66 1.32 1 2 C1.99 2.33 2.98 2.66 4 3 C3.34 4.65 2.68 6.3 2 8 C-2.875 3.25 -2.875 3.25 -4 1 C-2.68 0.67 -1.36 0.34 0 0 Z " fill="#EAEFF3" transform="translate(136,88)"/>
<path d="M0 0 C0.928125 0.20625 1.85625 0.4125 2.8125 0.625 C3.1425 1.615 3.4725 2.605 3.8125 3.625 C2.884375 3.41875 1.95625 3.2125 1 3 C-2.33923402 2.25807034 -2.33923402 2.25807034 -5.1875 4.625 C-5.8475 4.625 -6.5075 4.625 -7.1875 4.625 C-5.78075725 0.40477175 -4.42930454 -0.52109465 0 0 Z " fill="#27557F" transform="translate(158.1875,172.375)"/>
<path d="M0 0 C1.37562854 1.28965176 2.70766393 2.62689293 4 4 C4 4.66 4 5.32 4 6 C0.25 7.125 0.25 7.125 -2 6 C-2.625 3.9375 -2.625 3.9375 -3 2 C-2.01 1.34 -1.02 0.68 0 0 Z " fill="#ECF2F2" transform="translate(172,69)"/>
<path d="M0 0 C1.29539465 2.13359119 2.03274515 3.47607754 1.875 6 C0.73959163 8.59521914 -0.91485678 10.11664483 -3 12 C-3.66 11.67 -4.32 11.34 -5 11 C-4.360625 9.9275 -3.72125 8.855 -3.0625 7.75 C-1.59398727 5.19177818 -0.47145458 2.94659114 0 0 Z " fill="#DBE5ED" transform="translate(140,120)"/>
<path d="M0 0 C0.99 0.495 0.99 0.495 2 1 C2.33 0.67 2.66 0.34 3 0 C3.99 0.33 4.98 0.66 6 1 C5.67 3.31 5.34 5.62 5 8 C3.5 6.625 3.5 6.625 2 5 C2 4.34 2 3.68 2 3 C1.34 3 0.68 3 0 3 C0 2.01 0 1.02 0 0 Z " fill="#41709E" transform="translate(170,64)"/>
<path d="M0 0 C1.85625 -0.061875 1.85625 -0.061875 3.75 -0.125 C4.79414062 -0.15980469 4.79414062 -0.15980469 5.859375 -0.1953125 C8 0 8 0 12 2 C6.06 2.495 6.06 2.495 0 3 C0 2.01 0 1.02 0 0 Z " fill="#235486" transform="translate(104,187)"/>
<path d="M0 0 C-1 3 -1 3 -3 4 C-4.99960012 4.039992 -7.00047242 4.04346799 -9 4 C-8.67 3.01 -8.34 2.02 -8 1 C-2.25 0 -2.25 0 0 0 Z " fill="#E0E8EE" transform="translate(123,140)"/>
<path d="M0 0 C2 2 2 2 2.1953125 4.1640625 C2.16050781 5.38222656 2.16050781 5.38222656 2.125 6.625 C2.10695312 7.44226563 2.08890625 8.25953125 2.0703125 9.1015625 C2.04710937 9.72804688 2.02390625 10.35453125 2 11 C1.01 11 0.02 11 -1 11 C-1.125 6.25 -1.125 6.25 0 4 C0 2.68 0 1.36 0 0 Z " fill="#50799F" transform="translate(139,99)"/>
<path d="M0 0 C-0.33 0.66 -0.66 1.32 -1 2 C-4.3 2 -7.6 2 -11 2 C-7.39759636 -1.60240364 -4.69302684 -0.93860537 0 0 Z " fill="#285A83" transform="translate(142,182)"/>
<path d="M0 0 C-3.44450737 2.29633824 -5.93812283 2.54016485 -10 3 C-10.33 2.01 -10.66 1.02 -11 0 C-7.18243176 -1.37432457 -3.92744671 -0.67975039 0 0 Z " fill="#F7F8F8" transform="translate(136,45)"/>
<path d="M0 0 C-1.1875 1.5625 -1.1875 1.5625 -3 3 C-5.6875 2.6875 -5.6875 2.6875 -8 2 C-8 1.01 -8 0.02 -8 -1 C-4.37673261 -2.2077558 -3.35853631 -1.54311128 0 0 Z " fill="#EAEEEF" transform="translate(157,171)"/>
<path d="M0 0 C2.475 0.495 2.475 0.495 5 1 C5.33 1.99 5.66 2.98 6 4 C4.68 4.33 3.36 4.66 2 5 C1.34 3.35 0.68 1.7 0 0 Z " fill="#F0F3F4" transform="translate(138,96)"/>
<path d="M0 0 C0.33 0 0.66 0 1 0 C0.67 2.31 0.34 4.62 0 7 C-0.66 6.67 -1.32 6.34 -2 6 C-2.66 6.66 -3.32 7.32 -4 8 C-4 6.35 -4 4.7 -4 3 C-2.68 3 -1.36 3 0 3 C0 2.01 0 1.02 0 0 Z " fill="#DAE5EC" transform="translate(184,125)"/>
<path d="M0 0 C4.16138263 -0.08159574 7.9472484 0.01751476 12 1 C9.56644121 2.53224072 8.34278436 3.03344238 5.4375 2.75 C3 2 3 2 0 0 Z " fill="#E6F3F9" transform="translate(117,42)"/>
<path d="M0 0 C0.94875 0.04125 1.8975 0.0825 2.875 0.125 C3.205 0.785 3.535 1.445 3.875 2.125 C3.545 2.785 3.215 3.445 2.875 4.125 C0.235 3.465 -2.405 2.805 -5.125 2.125 C-3.125 0.125 -3.125 0.125 0 0 Z " fill="#275783" transform="translate(93.125,185.875)"/>
<path d="M0 0 C-0.3125 1.9375 -0.3125 1.9375 -1 4 C-1.99 4.33 -2.98 4.66 -4 5 C-4.99 4.01 -5.98 3.02 -7 2 C-2.25 0 -2.25 0 0 0 Z " fill="#38648A" transform="translate(146,178)"/>
<path d="M0 0 C0.33 0 0.66 0 1 0 C1.1875 2.875 1.1875 2.875 1 6 C0.01 6.66 -0.98 7.32 -2 8 C-2.66 6.02 -3.32 4.04 -4 2 C-3.01 2.33 -2.02 2.66 -1 3 C-0.67 2.01 -0.34 1.02 0 0 Z " fill="#F0F1F1" transform="translate(172,150)"/>
<path d="M0 0 C1.32 1.32 2.64 2.64 4 4 C3.01 4.99 2.02 5.98 1 7 C-0.00940379 4.98119242 -0.57206674 3.2109885 -1 1 C-0.67 0.67 -0.34 0.34 0 0 Z " fill="#3E6E9B" transform="translate(130,88)"/>
<path d="M0 0 C2.97 1.98 2.97 1.98 6 4 C4.02 4.99 4.02 4.99 2 6 C1.87625 5.360625 1.7525 4.72125 1.625 4.0625 C1.315625 3.0415625 1.315625 3.0415625 1 2 C0.34 1.67 -0.32 1.34 -1 1 C-0.67 0.67 -0.34 0.34 0 0 Z " fill="#E7EEF1" transform="translate(161,58)"/>
<path d="M0 0 C0 0.66 0 1.32 0 2 C-3.3 1.34 -6.6 0.68 -10 0 C-10 -0.33 -10 -0.66 -10 -1 C-5.92224809 -1.9267618 -3.57818963 -2.33958553 0 0 Z " fill="#5F88AF" transform="translate(143,45)"/>
<path d="M0 0 C0 3 0 3 -1.3125 4.38671875 C-2.875 5.59114583 -4.4375 6.79557292 -6 8 C-6.66 7.34 -7.32 6.68 -8 6 C-7.05125 5.38125 -6.1025 4.7625 -5.125 4.125 C-2.05554891 2.18029031 -2.05554891 2.18029031 0 0 Z " fill="#CFDEE9" transform="translate(134,132)"/>
<path d="M0 0 C1.98362069 2.91708924 1.9876191 4.12380904 1.625 7.75 C1.41875 8.8225 1.2125 9.895 1 11 C0.67 11 0.34 11 0 11 C-0.19406478 9.35492782 -0.38007935 7.70890406 -0.5625 6.0625 C-0.66691406 5.14597656 -0.77132812 4.22945313 -0.87890625 3.28515625 C-0.91886719 2.53105469 -0.95882812 1.77695313 -1 1 C-0.67 0.67 -0.34 0.34 0 0 Z " fill="#EEF0F0" transform="translate(180,83)"/>
</svg>
