<?xml version="1.0" encoding="UTF-8"?>
<svg version="1.1" xmlns="http://www.w3.org/2000/svg" width="200" height="200">
<path d="M0 0 C2.64987666 0.00545804 5.29959069 -0.00003439 7.94946289 -0.00634766 C9.64412472 -0.00568838 11.33878645 -0.00441034 13.03344727 -0.00244141 C14.21454826 -0.00547775 14.21454826 -0.00547775 15.41950989 -0.00857544 C18.64055326 0.00535335 21.21717689 0.10437472 24.29516602 1.13037109 C24.29516602 5.75037109 24.29516602 10.37037109 24.29516602 15.13037109 C22.62454102 15.08912109 20.95391602 15.04787109 19.23266602 15.00537109 C0.10259926 15.02625545 -27.30655489 15.19818503 -43.70483398 26.13037109 C-47.68775594 27.97958486 -51.35401969 29.47115681 -55.70483398 30.13037109 C-55.70483398 30.79037109 -55.70483398 31.45037109 -55.70483398 32.13037109 C-57.33573375 33.32656412 -59.0117773 34.46140334 -60.70483398 35.56787109 C-66.83885055 39.91773355 -70.74726928 44.79076508 -74.70483398 51.13037109 C-75.12506836 51.77490234 -75.54530273 52.41943359 -75.97827148 53.08349609 C-84.09826362 67.12558776 -82.92121933 85.17056341 -78.90795898 100.22802734 C-76.70657894 107.77948268 -72.74105017 113.23080357 -67.70483398 119.13037109 C-67.70483398 119.79037109 -67.70483398 120.45037109 -67.70483398 121.13037109 C-65.72483398 122.12037109 -65.72483398 122.12037109 -63.70483398 123.13037109 C-63.70483398 123.79037109 -63.70483398 124.45037109 -63.70483398 125.13037109 C-63.12475586 125.23865234 -62.54467773 125.34693359 -61.94702148 125.45849609 C-59.42064277 126.21552944 -57.92949127 127.29541579 -55.82983398 128.88037109 C-49.16308884 133.47277124 -40.86280924 137.13037109 -32.70483398 137.13037109 C-32.44831055 136.53482422 -32.19178711 135.93927734 -31.92749023 135.32568359 C-30.58654317 132.91797673 -29.28021615 131.72431474 -27.14233398 130.00537109 C-17.13545038 121.46423355 -5.83712211 109.65857517 -3.82592773 96.12646484 C-3.62514902 92.81685448 -3.70679721 90.31161331 -4.70483398 87.13037109 C-9.49027792 83.09100425 -13.89969091 82.19926996 -20.01733398 81.44287109 C-21.3596106 81.26244263 -21.3596106 81.26244263 -22.72900391 81.07836914 C-34.00232598 79.67753071 -45.35724185 79.38599202 -56.70483398 79.13037109 C-55.0120876 75.74487833 -51.35670407 75.39501707 -47.91967773 74.20068359 C0.89338649 57.94943256 0.89338649 57.94943256 23.29516602 65.13037109 C27.84782805 67.48961483 30.64405286 70.05196494 33.29516602 74.44287109 C35.44107081 82.35589502 34.59790622 89.6310798 31.29516602 97.13037109 C27.1809838 104.11836636 22.63780726 111.35669006 16.35766602 116.56787109 C14.02679257 118.51819377 12.48187564 120.0446593 10.67016602 122.38037109 C8.25975027 125.1713788 7.69432443 125.52337852 4.29516602 126.13037109 C3.96516602 127.12037109 3.63516602 128.11037109 3.29516602 129.13037109 C0.93188477 131.13818359 0.93188477 131.13818359 -2.01733398 133.25537109 C-2.9828418 133.95919922 -3.94834961 134.66302734 -4.94311523 135.38818359 C-7.33370988 136.8962532 -8.95278043 137.69893277 -11.70483398 138.13037109 C-11.70483398 138.79037109 -11.70483398 139.45037109 -11.70483398 140.13037109 C-12.36483398 140.79037109 -13.02483398 141.45037109 -13.70483398 142.13037109 C-2.04337082 143.20906036 9.61482442 144.27571195 21.29516602 145.13037109 C21.29516602 150.08037109 21.29516602 155.03037109 21.29516602 160.13037109 C13.63806475 163.95892173 1.61020465 162.32234359 -6.76733398 162.31787109 C-8.0306958 162.31851563 -9.29405762 162.31916016 -10.59570312 162.31982422 C-19.48318828 162.27004389 -28.17476985 161.72454506 -36.98217773 160.56787109 C-44.51143394 159.68300573 -48.14851963 160.51689113 -54.57983398 164.25537109 C-61.03438331 167.85682253 -67.45209092 170.78032974 -74.4387207 173.18945312 C-77.1819831 174.14291714 -79.66763055 175.10785946 -82.15795898 176.61474609 C-85.51982014 178.61536285 -89.00832407 179.76215027 -92.70483398 181.00537109 C-94.23659725 181.53252788 -95.76784399 182.0611878 -97.29858398 182.59130859 C-98.42586914 182.98141113 -98.42586914 182.98141113 -99.57592773 183.37939453 C-102.47645084 184.40256071 -105.34086604 185.50937354 -108.20483398 186.63037109 C-113.39476843 188.6406495 -118.5994782 190.60302228 -123.82983398 192.50537109 C-124.56524414 192.78058594 -125.3006543 193.05580078 -126.05834961 193.33935547 C-131.36019955 195.24524924 -131.36019955 195.24524924 -134.70483398 194.13037109 C-133.18535408 193.35687328 -131.66416832 192.58672629 -130.14233398 191.81787109 C-128.87196289 191.17398438 -128.87196289 191.17398438 -127.57592773 190.51708984 C-124.32693522 188.94784856 -121.02315889 187.54694523 -117.70483398 186.13037109 C-99.06481813 177.74868301 -80.92544527 168.15156232 -63.70483398 157.13037109 C-66.66574959 154.88765567 -66.66574959 154.88765567 -70.57983398 154.31787109 C-84.1229585 151.46899377 -97.96423458 144.87271944 -108.70483398 136.13037109 C-108.70483398 135.47037109 -108.70483398 134.81037109 -108.70483398 134.13037109 C-109.29393555 134.04013672 -109.88303711 133.94990234 -110.48999023 133.85693359 C-117.47036659 131.56707468 -123.36759427 120.80411366 -126.76733398 114.50537109 C-131.72765622 103.82945675 -133.34829757 93.84656388 -133.20483398 82.13037109 C-133.22030273 80.86708984 -133.23577148 79.60380859 -133.25170898 78.30224609 C-133.17316615 59.21633796 -125.40965732 45.61563358 -112.70483398 32.13037109 C-110.436929 30.23119891 -108.21125585 28.71050662 -105.70483398 27.13037109 C-105.37483398 26.47037109 -105.04483398 25.81037109 -104.70483398 25.13037109 C-101.15788742 22.92101601 -97.41056255 21.05862936 -93.70483398 19.13037109 C-92.7109668 18.60701172 -91.71709961 18.08365234 -90.69311523 17.54443359 C-81.64049334 12.88203748 -72.59977141 9.47832235 -62.70483398 7.13037109 C-61.86307617 6.82486328 -61.02131836 6.51935547 -60.15405273 6.20458984 C-55.44274675 4.73730882 -50.68625623 3.91260591 -45.82983398 3.06787109 C-44.89397461 2.89449219 -43.95811523 2.72111328 -42.99389648 2.54248047 C-28.75885314 0.04560795 -14.40789149 -0.03542366 0 0 Z " fill="#323232" transform="translate(155.704833984375,1.86962890625)"/>
</svg>
