<?xml version="1.0" encoding="UTF-8"?>
<!DOCTYPE svg PUBLIC "-//W3C//DTD SVG 1.1//EN" "http://www.w3.org/Graphics/SVG/1.1/DTD/svg11.dtd">
<svg xmlns="http://www.w3.org/2000/svg" version="1.1" width="600px" height="600px" style="shape-rendering:geometricPrecision; text-rendering:geometricPrecision; image-rendering:optimizeQuality; fill-rule:evenodd; clip-rule:evenodd" xmlns:xlink="http://www.w3.org/1999/xlink">
<g><path style="opacity:1" fill="#fefefe" d="M -0.5,-0.5 C 199.5,-0.5 399.5,-0.5 599.5,-0.5C 599.5,199.5 599.5,399.5 599.5,599.5C 399.5,599.5 199.5,599.5 -0.5,599.5C -0.5,399.5 -0.5,199.5 -0.5,-0.5 Z"/></g>
<g><path style="opacity:1" fill="#000000" d="M 78.5,53.5 C 78.5,86.1667 78.5,118.833 78.5,151.5C 78.5,184.167 78.5,216.833 78.5,249.5C 78.5,315.167 78.5,380.833 78.5,446.5C 78.5,479.167 78.5,511.833 78.5,544.5C 62.1667,544.5 45.8333,544.5 29.5,544.5C 29.5,380.833 29.5,217.167 29.5,53.5C 45.8333,53.5 62.1667,53.5 78.5,53.5 Z"/></g>
<g><path style="opacity:1" fill="#f6cf45" d="M 78.5,53.5 C 111.167,53.5 143.833,53.5 176.5,53.5C 176.5,86.1667 176.5,118.833 176.5,151.5C 143.833,151.5 111.167,151.5 78.5,151.5C 78.5,118.833 78.5,86.1667 78.5,53.5 Z"/></g>
<g><path style="opacity:1" fill="#020100" d="M 471.5,53.5 C 471.5,86.1667 471.5,118.833 471.5,151.5C 455.167,151.5 438.833,151.5 422.5,151.5C 422.5,118.833 422.5,86.1667 422.5,53.5C 438.833,53.5 455.167,53.5 471.5,53.5 Z"/></g>
<g><path style="opacity:1" fill="#f6cf45" d="M 471.5,53.5 C 504.167,53.5 536.833,53.5 569.5,53.5C 569.5,86.1667 569.5,118.833 569.5,151.5C 536.833,151.5 504.167,151.5 471.5,151.5C 471.5,118.833 471.5,86.1667 471.5,53.5 Z"/></g>
<g><path style="opacity:1" fill="#f1a63b" d="M 78.5,151.5 C 111.167,151.5 143.833,151.5 176.5,151.5C 209.167,151.5 241.833,151.5 274.5,151.5C 274.5,184.167 274.5,216.833 274.5,249.5C 209.5,249.5 144.5,249.5 79.5,249.5C 79.1667,249.5 78.8333,249.5 78.5,249.5C 78.5,216.833 78.5,184.167 78.5,151.5 Z"/></g>
<g><path style="opacity:1" fill="#707070" d="M 372.5,151.5 C 372.5,151.833 372.5,152.167 372.5,152.5C 356.5,152.5 340.5,152.5 324.5,152.5C 324.5,184.833 324.5,217.167 324.5,249.5C 324.167,249.5 323.833,249.5 323.5,249.5C 323.5,216.833 323.5,184.167 323.5,151.5C 339.833,151.5 356.167,151.5 372.5,151.5 Z"/></g>
<g><path style="opacity:1" fill="#000000" d="M 372.5,152.5 C 372.5,184.833 372.5,217.167 372.5,249.5C 356.5,249.5 340.5,249.5 324.5,249.5C 324.5,217.167 324.5,184.833 324.5,152.5C 340.5,152.5 356.5,152.5 372.5,152.5 Z"/></g>
<g><path style="opacity:1" fill="#f1a63b" d="M 373.5,151.5 C 389.833,151.5 406.167,151.5 422.5,151.5C 438.833,151.5 455.167,151.5 471.5,151.5C 504.167,151.5 536.833,151.5 569.5,151.5C 569.5,184.167 569.5,216.833 569.5,249.5C 504.167,249.5 438.833,249.5 373.5,249.5C 373.5,216.833 373.5,184.167 373.5,151.5 Z"/></g>
<g><path style="opacity:1" fill="#f6ba89" d="M 274.5,151.5 C 275.498,183.996 275.832,216.662 275.5,249.5C 291.5,249.5 307.5,249.5 323.5,249.5C 323.833,249.5 324.167,249.5 324.5,249.5C 324.5,249.833 324.5,250.167 324.5,250.5C 307.658,250.83 290.992,250.497 274.5,249.5C 274.5,216.833 274.5,184.167 274.5,151.5 Z"/></g>
<g><path style="opacity:1" fill="#834a1b" d="M 372.5,151.5 C 372.833,151.5 373.167,151.5 373.5,151.5C 373.5,184.167 373.5,216.833 373.5,249.5C 357.342,250.496 341.009,250.83 324.5,250.5C 324.5,250.167 324.5,249.833 324.5,249.5C 340.5,249.5 356.5,249.5 372.5,249.5C 372.5,217.167 372.5,184.833 372.5,152.5C 372.5,152.167 372.5,151.833 372.5,151.5 Z"/></g>
<g><path style="opacity:1" fill="#ee792f" d="M 79.5,249.5 C 144.5,249.5 209.5,249.5 274.5,249.5C 290.992,250.497 307.658,250.83 324.5,250.5C 341.009,250.83 357.342,250.496 373.5,249.5C 438.833,249.5 504.167,249.5 569.5,249.5C 569.5,282.167 569.5,314.833 569.5,347.5C 536.833,347.5 504.167,347.5 471.5,347.5C 455.167,347.5 438.833,347.5 422.5,347.5C 405.991,347.17 389.658,347.504 373.5,348.5C 373.167,348.5 372.833,348.5 372.5,348.5C 340.004,347.502 307.338,347.168 274.5,347.5C 258.167,347.5 241.833,347.5 225.5,347.5C 209.167,347.5 192.833,347.5 176.5,347.5C 144.167,347.5 111.833,347.5 79.5,347.5C 79.5,314.833 79.5,282.167 79.5,249.5 Z"/></g>
<g><path style="opacity:1" fill="#ea5728" d="M 78.5,249.5 C 78.8333,249.5 79.1667,249.5 79.5,249.5C 79.5,282.167 79.5,314.833 79.5,347.5C 111.833,347.5 144.167,347.5 176.5,347.5C 176.5,380.5 176.5,413.5 176.5,446.5C 143.833,446.5 111.167,446.5 78.5,446.5C 78.5,380.833 78.5,315.167 78.5,249.5 Z"/></g>
<g><path style="opacity:1" fill="#61534b" d="M 225.5,347.5 C 241.833,347.5 258.167,347.5 274.5,347.5C 274.5,347.833 274.5,348.167 274.5,348.5C 258.5,348.5 242.5,348.5 226.5,348.5C 226.5,380.833 226.5,413.167 226.5,445.5C 242.5,445.5 258.5,445.5 274.5,445.5C 274.5,445.833 274.5,446.167 274.5,446.5C 258.167,446.5 241.833,446.5 225.5,446.5C 225.5,413.833 225.5,381.167 225.5,348.5C 225.5,348.167 225.5,347.833 225.5,347.5 Z"/></g>
<g><path style="opacity:1" fill="#000000" d="M 274.5,348.5 C 274.5,380.833 274.5,413.167 274.5,445.5C 258.5,445.5 242.5,445.5 226.5,445.5C 226.5,413.167 226.5,380.833 226.5,348.5C 242.5,348.5 258.5,348.5 274.5,348.5 Z"/></g>
<g><path style="opacity:1" fill="#b6aba4" d="M 373.5,348.5 C 389.658,347.504 405.991,347.17 422.5,347.5C 422.5,347.833 422.5,348.167 422.5,348.5C 422.5,413.833 422.5,479.167 422.5,544.5C 421.501,479.335 421.168,414.002 421.5,348.5C 405.5,348.5 389.5,348.5 373.5,348.5 Z"/></g>
<g><path style="opacity:1" fill="#000000" d="M 422.5,348.5 C 438.5,348.5 454.5,348.5 470.5,348.5C 470.5,413.833 470.5,479.167 470.5,544.5C 454.5,544.5 438.5,544.5 422.5,544.5C 422.5,479.167 422.5,413.833 422.5,348.5 Z"/></g>
<g><path style="opacity:1" fill="#eb5828" d="M 274.5,348.5 C 274.5,348.167 274.5,347.833 274.5,347.5C 307.338,347.168 340.004,347.502 372.5,348.5C 372.5,380.833 372.5,413.167 372.5,445.5C 340.167,445.5 307.833,445.5 275.5,445.5C 275.832,412.996 275.498,380.662 274.5,348.5 Z"/></g>
<g><path style="opacity:1" fill="#ea5728" d="M 471.5,347.5 C 504.167,347.5 536.833,347.5 569.5,347.5C 569.5,380.5 569.5,413.5 569.5,446.5C 536.833,446.5 504.167,446.5 471.5,446.5C 471.5,413.5 471.5,380.5 471.5,347.5 Z"/></g>
<g><path style="opacity:1" fill="#d57758" d="M 274.5,348.5 C 275.498,380.662 275.832,412.996 275.5,445.5C 307.833,445.5 340.167,445.5 372.5,445.5C 372.5,413.167 372.5,380.833 372.5,348.5C 372.833,348.5 373.167,348.5 373.5,348.5C 373.5,381.167 373.5,413.833 373.5,446.5C 340.5,446.5 307.5,446.5 274.5,446.5C 274.5,446.167 274.5,445.833 274.5,445.5C 274.5,413.167 274.5,380.833 274.5,348.5 Z"/></g>
<g><path style="opacity:1" fill="#e93326" d="M 78.5,446.5 C 111.167,446.5 143.833,446.5 176.5,446.5C 176.5,479.167 176.5,511.833 176.5,544.5C 143.833,544.5 111.167,544.5 78.5,544.5C 78.5,511.833 78.5,479.167 78.5,446.5 Z"/></g>
<g><path style="opacity:1" fill="#f7c0b3" d="M 176.5,347.5 C 192.833,347.5 209.167,347.5 225.5,347.5C 225.5,347.833 225.5,348.167 225.5,348.5C 209.5,348.5 193.5,348.5 177.5,348.5C 177.832,414.002 177.499,479.335 176.5,544.5C 176.5,511.833 176.5,479.167 176.5,446.5C 176.5,413.5 176.5,380.5 176.5,347.5 Z"/></g>
<g><path style="opacity:1" fill="#47170d" d="M 422.5,348.5 C 422.5,348.167 422.5,347.833 422.5,347.5C 438.833,347.5 455.167,347.5 471.5,347.5C 471.5,380.5 471.5,413.5 471.5,446.5C 471.5,479.167 471.5,511.833 471.5,544.5C 471.167,544.5 470.833,544.5 470.5,544.5C 470.5,479.167 470.5,413.833 470.5,348.5C 454.5,348.5 438.5,348.5 422.5,348.5 Z"/></g>
<g><path style="opacity:1" fill="#e93326" d="M 471.5,446.5 C 504.167,446.5 536.833,446.5 569.5,446.5C 569.5,479.167 569.5,511.833 569.5,544.5C 536.833,544.5 504.167,544.5 471.5,544.5C 471.5,511.833 471.5,479.167 471.5,446.5 Z"/></g>
</svg>
